<svg width="64" height="64" viewBox="0 0 64 64" fill="none" xmlns="http://www.w3.org/2000/svg">
  <defs>
    <linearGradient id="g1" x1="0" y1="0" x2="64" y2="64" gradientUnits="userSpaceOnUse">
      <stop stop-color="#a78bfa"/>
      <stop offset="1" stop-color="#22d3ee"/>
    </linearGradient>
    <linearGradient id="g2" x1="0" y1="0" x2="64" y2="64" gradientUnits="userSpaceOnUse">
      <stop stop-color="#7c3aed"/>
      <stop offset="1" stop-color="#0891b2"/>
    </linearGradient>
  </defs>

  <!-- Background -->
  <rect width="64" height="64" rx="16" fill="#0f172a"/>

  <!-- Outer hexagon -->
  <polygon
    points="32,6 56,19 56,45 32,58 8,45 8,19"
    stroke="url(#g1)"
    stroke-width="1.5"
    fill="none"
    opacity="0.4"
  />

  <!-- Inner hexagon -->
  <polygon
    points="32,14 49,23.5 49,40.5 32,50 15,40.5 15,23.5"
    stroke="url(#g1)"
    stroke-width="1"
    fill="none"
    opacity="0.2"
  />

  <!-- G letter -->
  <path
    d="M38 26C36 23 33 21.5 30 21.5C24.5 21.5 20 26 20 32C20 38 24.5 42.5 30 42.5C35 42.5 38.5 39 39.5 34.5H31V30.5H43.5V34.5C42 40.5 36.5 46 30 46C22.5 46 16 39.5 16 32C16 24.5 22.5 18 30 18C34.5 18 38.5 20 41 23.5"
    stroke="url(#g1)"
    stroke-width="3"
    stroke-linecap="round"
    stroke-linejoin="round"
    fill="none"
  />

  <!-- Top right dot -->
  <circle cx="50" cy="14" r="3" fill="#22d3ee" opacity="0.9"/>

  <!-- Bottom left dot -->
  <circle cx="14" cy="50" r="2" fill="#a78bfa" opacity="0.7"/>
</svg>
