<svg width="32" height="32" viewBox="0 0 32 32" fill="none" xmlns="http://www.w3.org/2000/svg">
  <defs>
    <linearGradient id="g1" x1="0" y1="0" x2="32" y2="32" gradientUnits="userSpaceOnUse">
      <stop stop-color="#a78bfa"/>
      <stop offset="1" stop-color="#22d3ee"/>
    </linearGradient>
  </defs>

  <!-- Background -->
  <rect width="32" height="32" rx="8" fill="#0f172a"/>

  <!-- Outer hexagon -->
  <polygon
    points="16,3 28,9.5 28,22.5 16,29 4,22.5 4,9.5"
    stroke="url(#g1)"
    stroke-width="1"
    fill="none"
    opacity="0.4"
  />

  <!-- G letter -->
  <path
    d="M19 13C18 11.5 16.5 10.5 15 10.5C12 10.5 10 13 10 16C10 19 12 21.5 15 21.5C17.5 21.5 19.5 20 20 17.5H15.5V15.5H22V17.5C21 20.5 18.5 23 15 23C11 23 8 19.5 8 16C8 12.5 11 9 15 9C17.5 9 19.5 10 21 12"
    stroke="url(#g1)"
    stroke-width="1.5"
    stroke-linecap="round"
    stroke-linejoin="round"
    fill="none"
  />

  <!-- Dot -->
  <circle cx="25" cy="7" r="2" fill="#22d3ee" opacity="0.9"/>
</svg>
